<?xml version="1.0" encoding="UTF-8"?><svg id="Layer_2" xmlns="http://www.w3.org/2000/svg" viewBox="0 0 5588.1527105454 53.4784307692"><defs><style>.cls-1{fill:gray;}</style></defs><g id="Layer_1-2"><path class="cls-1" d="M5582.3209254058,42.650016595H32.899788534c-5.9880958544,0-17.5911071772-2.3021280516-23.2013845565,0-.8663368605.3554937223-3.2878822832.1576139285-4.2809225903,0,8.6480075033,1.3725993059,2.0840758481,6.3034218094,4.787244122-1.4642509845,1.8343241367-5.2710109944.6211095908-19.0584259087,0-24.5639995425-1.2166703953-10.7846804319,2.9158014169-7.1950150484-5.0726440291-5.7933518939,3.3536785902-.5884408604,7.7291308218-.2215683929,11.0848301326,0,25.8483524874,1.7067017601,52.4041843626,0,78.2968164363,0h3253.6147538888c257.7840292385,0,515.568058477,0,773.3520877155,0h1434.7835906277c5.5567994315,0,16.2646465729,2.1317126022,21.4607239018,0,.8692449204-.3566113885,3.2325901996-.1539464531,4.2327965648,0-6.125534125-.9428096892-1.7089670447-7.2120324894-4.7391180965,1.4642509845-3.3062956532,9.4669730468,0,25.2749062005,0,35.459714191,0,6.5662538967,10.2047255092,6.5771297898,10.2047255092,0V5.7260514195c0-2.7582417518-2.3377186969-5.1023627546-5.1023627546-5.1023627546H231.4975514361C159.2436605796.6236886649,86.8298465998-.7796108311,14.585597492.6236886649c-3.1584990048.0613518739-6.323773992,0-9.4832347374,0C2.3441210028.6236886649,0,2.9614073618,0,5.7260514195v42.0263279301c0,2.7582417519,2.3377186969,5.1023627546,5.1023627546,5.1023627546h5350.8233739697c72.2538908565,0,144.6677048364,1.403299496,216.9119539441,0,3.1584990048-.0613518739,6.323773992,0,9.4832347374,0,6.5662538967,0,6.5771297898-10.2047255092,0-10.2047255092Z"/><path class="cls-1" d="M242.5888322864,47.7523793496V6.1055228926c0-6.5662538967-10.2047255092-6.5771297898-10.2047255092,0v41.646856457c0,6.5662538967,10.2047255092,6.5771297898,10.2047255092,0h0Z"/><path class="cls-1" d="M10.2047255092,47.7523793496V6.1055228926C10.2047255092-.460731004,0-.4716068972,0,6.1055228926v41.646856457c0,6.5662538967,10.2047255092,6.5771297898,10.2047255092,0h0Z"/><path class="cls-1" d="M708.254683086,46.9173974466V6.9405047956c0-7.7214273612-12-7.7342166045-12,0v39.976892651c0,7.7214273612,12,7.7342166045,12,0h0Z"/><path class="cls-1" d="M940.6387898631,46.9173974466V6.9405047956c0-7.7214273612-12-7.7342166045-12,0v39.976892651c0,7.7214273612,12,7.7342166045,12,0h0Z"/><path class="cls-1" d="M475.8705763089,46.9173974466V6.9405047956c0-7.7214273612-12-7.7342166045-12,0v39.976892651c0,7.7214273612,12,7.7342166045,12,0h0Z"/><path class="cls-1" d="M1173.0228966403,46.9173974466V6.9405047956c0-7.7214273612-12-7.7342166045-12,0v39.976892651c0,7.7214273612,12,7.7342166045,12,0h0Z"/><path class="cls-1" d="M1405.4070034174,46.9173974466V6.9405047956c0-7.7214273612-12-7.7342166045-12,0v39.976892651c0,7.7214273612,12,7.7342166045,12,0h0Z"/><path class="cls-1" d="M1637.7911101945,46.9173974466V6.9405047956c0-7.7214273612-12-7.7342166045-12,0v39.976892651c0,7.7214273612,12,7.7342166045,12,0h0Z"/><path class="cls-1" d="M1870.1752169717,46.9173974466V6.9405047956c0-7.7214273612-12-7.7342166045-12,0v39.976892651c0,7.7214273612,12,7.7342166045,12,0h0Z"/><path class="cls-1" d="M2334.943430526,46.9173974466V6.9405047956c0-7.7214273612-12-7.7342166045-12,0v39.976892651c0,7.7214273612,12,7.7342166045,12,0h0Z"/><path class="cls-1" d="M2102.5593237488,46.9173974466V6.9405047956c0-7.7214273612-12-7.7342166045-12,0v39.976892651c0,7.7214273612,12,7.7342166045,12,0h0Z"/><path class="cls-1" d="M2567.3275373031,46.9173974466V6.9405047956c0-7.7214273612-12-7.7342166045-12,0v39.976892651c0,7.7214273612,12,7.7342166045,12,0h0Z"/><path class="cls-1" d="M2799.5807793518,46.9173974466V6.9405047956c0-7.7214273612-12-7.7342166045-12,0v39.976892651c0,7.7214273612,12,7.7342166045,12,0h0Z"/><path class="cls-1" d="M3031.9648861289,46.9173974466V6.9405047956c0-7.7214273612-12-7.7342166045-12,0v39.976892651c0,7.7214273612,12,7.7342166045,12,0h0Z"/><path class="cls-1" d="M2567.1966725747,46.9173974466V6.9405047956c0-7.7214273612-12-7.7342166045-12,0v39.976892651c0,7.7214273612,12,7.7342166045,12,0h0Z"/><path class="cls-1" d="M3264.3489929061,46.9173974466V6.9405047956c0-7.7214273612-12-7.7342166045-12,0v39.976892651c0,7.7214273612,12,7.7342166045,12,0h0Z"/><path class="cls-1" d="M3496.7330996832,46.9173974466V6.9405047956c0-7.7214273612-12-7.7342166045-12,0v39.976892651c0,7.7214273612,12,7.7342166045,12,0h0Z"/><path class="cls-1" d="M3729.1172064603,46.9173974466V6.9405047956c0-7.7214273612-12-7.7342166045-12,0v39.976892651c0,7.7214273612,12,7.7342166045,12,0h0Z"/><path class="cls-1" d="M3961.5013132375,46.9173974466V6.9405047956c0-7.7214273612-12-7.7342166045-12,0v39.976892651c0,7.7214273612,12,7.7342166045,12,0h0Z"/><path class="cls-1" d="M4426.2695267918,46.9173974466V6.9405047956c0-7.7214273612-12-7.7342166045-12,0v39.976892651c0,7.7214273612,12,7.7342166045,12,0h0Z"/><path class="cls-1" d="M4193.8854200146,46.9173974466V6.9405047956c0-7.7214273612-12-7.7342166045-12,0v39.976892651c0,7.7214273612,12,7.7342166045,12,0h0Z"/><path class="cls-1" d="M4658.6536335689,46.9173974466V6.9405047956c0-7.7214273612-12-7.7342166045-12,0v39.976892651c0,7.7214273612,12,7.7342166045,12,0h0Z"/><path class="cls-1" d="M4663.8868610518,46.9173974466V6.9405047956c0-7.7214273612-12-7.7342166045-12,0v39.976892651c0,7.7214273612,12,7.7342166045,12,0h0Z"/><path class="cls-1" d="M4896.270967829,46.9173974466V6.9405047956c0-7.7214273612-12-7.7342166045-12,0v39.976892651c0,7.7214273612,12,7.7342166045,12,0h0Z"/><path class="cls-1" d="M5128.6550746061,46.9173974466V6.9405047956c0-7.7214273612-12-7.7342166045-12,0v39.976892651c0,7.7214273612,12,7.7342166045,12,0h0Z"/><path class="cls-1" d="M5361.0391813833,46.9173974466V6.9405047956c0-7.7214273612-12-7.7342166045-12,0v39.976892651c0,7.7214273612,12,7.7342166045,12,0h0Z"/><path class="cls-1" d="M5588.1527105454,46.9173974466V6.9405047956c0-7.7214273612-12-7.7342166045-12,0v39.976892651c0,7.7214273612,12,7.7342166045,12,0h0Z"/></g></svg>