<?xml version="1.0" encoding="UTF-8"?><svg id="Layer_2" xmlns="http://www.w3.org/2000/svg" viewBox="0 0 5587.4232881604 142.4431061776"><defs><style>.cls-1{fill:gray;}.cls-2{fill:#fff;}</style></defs><g id="Layer_1-2"><path class="cls-2" d="M7.3526764757,63.7793006334L71.1319771091,0h23.9179701594L31.2706466351,63.7793006334H7.3526764757ZM35.2550218699,27.9023453942L7.3526764757,0h23.9179701594l15.9433603145,15.9448251583-11.9589850797,11.9575202359ZM71.1319771091,63.7793006334l-15.9433603145-15.9448251584,11.9560553921-11.9589850797,27.9052750819,27.9038102381h-23.9179701594Z"/><path class="cls-2" d="M103.7979946591,63.7793006334V0h87.6972707929l-39.861330474,39.861330474h-23.9179701594v-15.9448251583h15.9433603145l7.9746098449-7.9716801573h-31.8896503167v47.8344754751h-15.9462900022Z"/><path class="cls-1" d="M5582.3209254058,131.6146920034H32.899788534c-5.9880958544,0-17.5911071772-2.3021280516-23.2013845565,0-.8663368605.3554937223-3.2878822832.1576139285-4.2809225903,0,8.6480075033,1.3725993059,2.0840758481,6.3034218094,4.787244122-1.4642509845,1.8343241367-5.2710109944.6211095908-19.0584259087,0-24.5639995425-1.2166703953-10.7846804319,2.9158014169-7.1950150484-5.0726440291-5.7933518939,3.3536785902-.5884408604,7.7291308218-.2215683929,11.0848301326,0,25.8483524874,1.7067017601,52.4041843626,0,78.2968164363,0h3253.6147538888c257.7840292385,0,515.568058477,0,773.3520877155,0h1434.7835906277c5.5567994315,0,16.2646465729,2.1317126022,21.4607239018,0,.8692449204-.3566113885,3.2325901996-.1539464531,4.2327965648,0-6.125534125-.9428096892-1.7089670447-7.2120324894-4.7391180965,1.4642509845-3.3062956532,9.4669730468,0,25.2749062005,0,35.459714191,0,6.5662538967,10.2047255092,6.5771297898,10.2047255092,0v-42.0263279301c0-2.7582417518-2.3377186969-5.1023627546-5.1023627546-5.1023627546H231.4975514361c-72.2538908565,0-144.6677048364-1.403299496-216.9119539441,0-3.1584990048.0613518739-6.323773992,0-9.4832347374,0-2.7582417519,0-5.1023627546,2.3377186969-5.1023627546,5.1023627546v42.0263279301c0,2.7582417519,2.3377186969,5.1023627546,5.1023627546,5.1023627546h5350.8233739697c72.2538908565,0,144.6677048364,1.403299496,216.9119539441,0,3.1584990048-.0613518739,6.323773992,0,9.4832347374,0,6.5662538967,0,6.5771297898-10.2047255092,0-10.2047255092Z"/><path class="cls-1" d="M242.5888322864,136.717054758v-41.646856457c0-6.5662538967-10.2047255092-6.5771297898-10.2047255092,0v41.646856457c0,6.5662538967,10.2047255092,6.5771297898,10.2047255092,0h0Z"/><path class="cls-1" d="M10.2047255092,136.717054758v-41.646856457c0-6.5662538966-10.2047255092-6.5771297898-10.2047255092,0v41.646856457c0,6.5662538967,10.2047255092,6.5771297898,10.2047255092,0h0Z"/></g></svg>